<svg width="442" height="522" viewBox="0 0 442 522" fill="none" xmlns="http://www.w3.org/2000/svg">
<path d="M218.015 1.30737L1.1687 132.925V394.004L218.015 521.307L441.366 394.004V132.925L218.015 1.30737Z" fill="white" stroke="#DFDDDD"/>
<path d="M220.364 22.975L20.6853 144.173V384.583L220.364 501.808L426.033 384.583V144.173L220.364 22.975Z" fill="#5B4282" stroke="#DFDDDD"/>
<path d="M119.583 353.157H127.449C131.033 353.157 133.636 353.668 135.255 354.688C136.875 355.709 137.684 357.331 137.684 359.556C137.684 361.067 137.329 362.305 136.62 363.273C135.911 364.241 134.967 364.823 133.792 365.02V365.192C135.395 365.549 136.55 366.218 137.259 367.198C137.968 368.177 138.323 369.479 138.323 371.105C138.323 373.412 137.491 375.209 135.824 376.501C134.158 377.792 131.895 378.436 129.037 378.436H119.583V353.157ZM124.942 363.169H128.054C129.506 363.169 130.559 362.944 131.209 362.496C131.861 362.046 132.187 361.303 132.187 360.265C132.187 359.297 131.833 358.604 131.124 358.182C130.415 357.76 129.294 357.551 127.761 357.551H124.942V363.169ZM124.942 367.423V374.011H128.436C129.91 374.011 130.999 373.729 131.704 373.164C132.41 372.599 132.759 371.735 132.759 370.57C132.759 368.474 131.26 367.423 128.264 367.423H124.942ZM166.317 365.763C166.317 369.946 165.279 373.164 163.205 375.412C161.131 377.66 158.158 378.784 154.284 378.784C150.411 378.784 147.437 377.66 145.363 375.412C143.287 373.164 142.251 369.937 142.251 365.729C142.251 361.521 143.291 358.309 145.373 356.089C147.454 353.87 150.435 352.76 154.32 352.76C158.205 352.76 161.175 353.879 163.234 356.114C165.289 358.35 166.317 361.568 166.317 365.763ZM147.87 365.763C147.87 368.587 148.405 370.714 149.479 372.143C150.551 373.572 152.152 374.287 154.284 374.287C158.56 374.287 160.699 371.446 160.699 365.763C160.699 360.069 158.572 357.222 154.318 357.222C152.186 357.222 150.577 357.938 149.494 359.375C148.411 360.812 147.87 362.938 147.87 365.763ZM194.502 365.763C194.502 369.946 193.464 373.164 191.39 375.412C189.316 377.66 186.343 378.784 182.469 378.784C178.596 378.784 175.622 377.66 173.548 375.412C171.472 373.164 170.436 369.937 170.436 365.729C170.436 361.521 171.476 358.309 173.558 356.089C175.639 353.87 178.62 352.76 182.505 352.76C186.39 352.76 189.36 353.879 191.419 356.114C193.472 358.35 194.502 361.568 194.502 365.763ZM176.053 365.763C176.053 368.587 176.588 370.714 177.662 372.143C178.734 373.572 180.335 374.287 182.467 374.287C186.744 374.287 188.882 371.446 188.882 365.763C188.882 360.069 186.755 357.222 182.501 357.222C180.369 357.222 178.76 357.938 177.677 359.375C176.594 360.812 176.053 362.938 176.053 365.763ZM209.492 378.436H204.132V357.619H197.268V353.157H216.356V357.619H209.492V378.436ZM235.166 371.417C235.166 373.701 234.345 375.499 232.703 376.813C231.06 378.126 228.774 378.784 225.848 378.784C223.15 378.784 220.764 378.276 218.691 377.262V372.283C220.396 373.043 221.84 373.58 223.022 373.892C224.203 374.204 225.283 374.359 226.264 374.359C227.44 374.359 228.341 374.134 228.969 373.686C229.599 373.236 229.912 372.568 229.912 371.68C229.912 371.185 229.774 370.744 229.498 370.357C229.222 369.971 228.816 369.599 228.279 369.241C227.742 368.884 226.651 368.313 225.003 367.53C223.458 366.804 222.299 366.107 221.528 365.438C220.755 364.768 220.139 363.991 219.677 363.105C219.216 362.216 218.985 361.178 218.985 359.993C218.985 357.757 219.744 355.999 221.26 354.719C222.776 353.439 224.87 352.8 227.545 352.8C228.859 352.8 230.113 352.955 231.306 353.267C232.499 353.579 233.746 354.015 235.049 354.581L233.319 358.747C231.971 358.195 230.856 357.808 229.973 357.588C229.09 357.369 228.224 357.259 227.372 357.259C226.356 357.259 225.579 357.496 225.037 357.968C224.494 358.441 224.224 359.057 224.224 359.819C224.224 360.292 224.334 360.704 224.553 361.056C224.772 361.407 225.12 361.747 225.598 362.076C226.077 362.405 227.209 362.995 228.995 363.85C231.359 364.98 232.979 366.113 233.854 367.247C234.729 368.381 235.166 369.769 235.166 371.417ZM249.501 378.436H244.142V357.619H237.278V353.157H256.366V357.619H249.501V378.436ZM265.616 368.737V378.436H260.256V353.157H267.622C271.056 353.157 273.597 353.783 275.246 355.033C276.894 356.284 277.718 358.184 277.718 360.73C277.718 362.218 277.31 363.54 276.492 364.698C275.673 365.857 274.514 366.765 273.017 367.421C276.821 373.103 279.299 376.775 280.452 378.435H274.505L268.47 368.735H265.616V368.737ZM265.616 364.379H267.346C269.039 364.379 270.291 364.097 271.098 363.532C271.905 362.967 272.308 362.078 272.308 360.868C272.308 359.67 271.896 358.817 271.072 358.309C270.247 357.802 268.971 357.549 267.242 357.549H265.616V364.379ZM299.107 378.436L297.273 372.419H288.057L286.224 378.436H280.448L289.369 353.055H295.922L304.879 378.436H299.107ZM295.994 367.924C294.3 362.471 293.345 359.388 293.131 358.674C292.918 357.959 292.767 357.394 292.674 356.98C292.294 358.454 291.205 362.103 289.405 367.924H295.994ZM325.527 361.042C325.527 363.763 324.676 365.844 322.976 367.283C321.277 368.725 318.859 369.445 315.723 369.445H313.424V378.436H308.064V353.157H316.138C319.205 353.157 321.536 353.817 323.133 355.136C324.729 356.458 325.527 358.426 325.527 361.042ZM313.424 365.054H315.188C316.836 365.054 318.069 364.729 318.887 364.076C319.706 363.424 320.114 362.477 320.114 361.233C320.114 359.976 319.77 359.048 319.086 358.449C318.399 357.849 317.324 357.549 315.861 357.549H313.422V365.054H313.424ZM241.367 247.618C237.618 246.384 232.221 246.183 225.175 246.183H199.869V283.993H227.137C231.867 283.993 235.189 283.522 237.102 283.166C240.473 282.565 243.291 281.408 245.556 279.998C247.821 278.591 249.683 276.465 251.142 273.773C252.6 271.081 253.331 267.937 253.331 264.413C253.331 260.284 252.275 256.889 250.161 253.845C248.049 250.8 245.117 248.851 241.367 247.618ZM237.48 231.337C241.204 230.229 244.011 228.226 245.896 225.66C247.785 223.095 248.728 219.794 248.728 215.917C248.728 212.244 247.847 208.969 246.085 206.173C244.323 203.379 241.807 201.483 238.539 200.451C235.264 199.422 229.653 198.921 221.702 198.921H199.869V232.95H223.513C230.007 232.95 234.661 232.196 237.48 231.337ZM322.749 170.803C322.749 156.053 310.792 144.098 296.043 144.098H149.066C134.317 144.098 122.36 156.053 122.36 170.803V317.783C122.36 332.532 134.317 344.487 149.066 344.487H296.043C310.792 344.487 322.749 332.532 322.749 317.783V170.803ZM265.223 278.832C263.035 283.285 260.328 286.72 257.109 289.136C253.887 291.551 249.847 293.761 244.991 294.993C240.134 296.228 234.183 297.226 227.137 297.226H184.745V185.688H226.458C234.915 185.688 241.694 186.86 246.802 189.099C251.912 191.339 255.91 194.81 258.808 199.464C261.701 204.12 263.149 209.003 263.149 214.087C263.149 218.817 261.863 223.276 259.3 227.454C256.732 231.632 252.857 235.007 247.673 237.572C254.366 239.534 259.513 242.886 263.111 247.616C266.708 252.348 268.508 257.934 268.508 264.377C268.506 269.561 267.414 274.379 265.223 278.832Z" fill="white"/>
</svg>
