<svg width="442" height="523" viewBox="0 0 442 523" fill="none" xmlns="http://www.w3.org/2000/svg">
<path d="M217.519 1.47803L0.673096 133.096V394.175L217.519 521.477L440.871 394.175V133.096L217.519 1.47803Z" fill="white" stroke="#DFDDDD"/>
<path d="M219.869 23.1455L20.1897 144.344V384.754L219.869 501.978L425.538 384.754V144.344L219.869 23.1455Z" fill="#1572B6" fill-opacity="0.9" stroke="#DFDDDD"/>
<path d="M114.283 171.298L133.432 386.051L219.354 409.901L305.516 386.02L324.686 171.298H114.283ZM278.528 291.113L272.951 343.066L272.973 347.516L219.485 362.455V362.457L219.442 362.493L165.526 347.72L161.879 306.567H188.318L190.193 327.37L219.494 335.19L219.485 335.225V335.149L248.897 326.855L252.001 292.329H190.52L189.994 286.74L188.793 273.339L188.164 266.224H254.341L256.748 240.119H155.953L155.424 233.975L154.223 219.665L153.594 211.642H285.534L284.9 219.554L278.528 291.113Z" fill="white"/>
<path d="M278.813 143.708L261.848 123.835H278.813V111.97H240.843V122.324L260.754 140.447H240.843V152.313H278.813V143.708ZM233.723 143.708L217.569 123.835H233.723V111.97H198.126V122.324L216.478 140.447H198.126V152.313H233.723V143.708ZM191.007 140.447H172.022V123.835H191.007V111.97H157.783V152.313H191.007V140.447Z" fill="white"/>
</svg>
