<svg width="442" height="522" viewBox="0 0 442 522" fill="none" xmlns="http://www.w3.org/2000/svg">
<path d="M217.979 0.65625L1.13306 132.274V393.353L217.979 520.656L441.33 393.353V132.274L217.979 0.65625Z" fill="white" stroke="#DFDDDD"/>
<path d="M220.328 22.3237L20.6497 143.522V383.932L220.328 501.157L425.998 383.932V143.522L220.328 22.3237Z" fill="#F34F29" stroke="#DFDDDD"/>
<path d="M254.432 239.228C247.386 239.228 242.14 242.688 242.14 251.016C242.14 257.289 245.597 261.645 254.053 261.645C261.22 261.645 266.091 257.42 266.091 250.756C266.091 243.203 261.732 239.228 254.432 239.228ZM240.348 298.024C238.68 300.07 237.017 302.246 237.017 304.812C237.017 309.932 243.545 311.472 252.517 311.472C259.943 311.472 270.063 310.952 270.063 304.045C270.063 299.939 265.192 299.687 259.042 299.301L240.348 298.024ZM278.254 239.614C280.558 242.562 282.996 246.66 282.996 252.552C282.996 266.767 271.852 275.092 255.716 275.092C251.613 275.092 247.898 274.583 245.594 273.942L241.368 280.73L253.917 281.495C276.076 282.908 289.138 283.549 289.138 300.578C289.138 315.31 276.205 323.63 253.917 323.63C230.733 323.63 221.898 317.738 221.898 307.623C221.898 301.857 224.462 298.791 228.944 294.556C224.715 292.77 223.309 289.57 223.309 286.11C223.309 283.291 224.717 280.73 227.024 278.295C229.33 275.865 231.892 273.427 234.963 270.611C228.687 267.537 223.95 260.877 223.95 251.396C223.95 236.669 233.683 226.555 253.279 226.555C258.787 226.555 262.121 227.062 265.064 227.837H290.042V238.721L278.254 239.614ZM312.574 216.343C305.271 216.343 301.044 212.113 301.044 204.81C301.044 197.517 305.271 193.543 312.574 193.543C320.003 193.543 324.228 197.515 324.228 204.81C324.23 212.113 320.003 216.343 312.574 216.343ZM296.047 293.313V283.199L302.583 282.303C304.375 282.046 304.63 281.662 304.63 279.736V242.083C304.63 240.677 304.249 239.776 302.964 239.395L296.047 236.96L297.455 226.591H323.973V279.739C323.973 281.793 324.096 282.046 326.022 282.306L332.555 283.201V293.316H296.047V293.313ZM383.204 288.345C377.692 291.03 369.627 293.468 362.321 293.468C347.082 293.468 341.321 287.325 341.321 272.845V239.29C341.321 238.525 341.321 238.01 340.294 238.01H331.33V226.612C342.605 225.327 347.084 219.692 348.493 205.732H360.664V223.924C360.664 224.817 360.664 225.206 361.688 225.206H379.747V238.013H360.664V268.621C360.664 276.176 362.458 279.121 369.372 279.121C372.963 279.121 376.673 278.228 379.747 277.075L383.204 288.345Z" fill="#31251C"/>
<path d="M193.43 254.735L134.868 196.176C131.498 192.804 126.028 192.804 122.656 196.176L110.495 208.337L125.917 223.762C129.506 222.552 133.614 223.363 136.472 226.223C139.345 229.098 140.15 233.243 138.91 236.842L153.776 251.708C157.37 250.47 161.522 251.27 164.395 254.146C168.411 258.159 168.411 264.664 164.395 268.68C160.376 272.696 153.874 272.696 149.858 268.68C146.838 265.658 146.092 261.222 147.621 257.503L133.756 243.638L133.753 280.125C134.734 280.609 135.656 281.253 136.472 282.066C140.488 286.079 140.488 292.582 136.472 296.603C132.456 300.616 125.948 300.616 121.938 296.603C117.922 292.582 117.922 286.079 121.938 282.066C122.931 281.075 124.077 280.326 125.302 279.824V242.999C124.077 242.5 122.931 241.753 121.938 240.757C118.895 237.717 118.164 233.256 119.724 229.52L104.52 214.312L64.3644 254.465C60.9895 257.84 60.9895 263.31 64.3644 266.685L122.926 325.244C126.298 328.616 131.766 328.616 135.143 325.244L193.43 266.953C196.805 263.58 196.805 258.108 193.43 254.735Z" fill="#31251C"/>
</svg>
