<svg width="442" height="522" viewBox="0 0 442 522" fill="none" xmlns="http://www.w3.org/2000/svg">
<path d="M217.776 1.26587L0.929688 132.884V393.962L217.776 521.265L441.127 393.962V132.884L217.776 1.26587Z" fill="white" stroke="#DFDDDD"/>
<path d="M220.125 22.9335L20.4463 144.132V384.542L220.125 501.766L425.794 384.542V144.132L220.125 22.9335Z" fill="#E44D26" fill-opacity="0.9" stroke="#DFDDDD"/>
<path d="M123.236 180.901L140.801 376.207L219.622 397.237L298.662 376.605L316.246 180.901H123.236ZM279.711 225.364L278.61 238.036L278.125 243.89H185.664L187.873 269.954H275.927L275.339 274.8L269.659 337.591L269.242 341.262L219.741 354.585V354.574L219.683 354.6L170.21 341.75L166.852 304.706H191.11L192.828 323.082L219.728 329.9L219.741 329.391V329.418L246.7 323.664L249.515 293.846H165.773L159.834 226.87L159.255 219.997H280.289L279.711 225.364ZM141.453 125.79H153.664V137.858H164.837V125.79H177.05V162.328H164.837V150.093H153.666V162.328H141.453V125.79ZM193.108 137.908H182.356V125.79H216.077V137.908H205.321V162.328H193.108V137.908ZM221.429 125.79H234.161L241.996 138.629L249.822 125.79H262.56V162.328H250.395V144.218L241.996 157.208H241.783L233.377 144.218V162.328H221.427V125.79H221.429ZM268.64 125.79H280.855V150.251H298.03V162.33H268.64V125.79Z" fill="white"/>
</svg>
