<svg width="442" height="522" viewBox="0 0 442 522" fill="none" xmlns="http://www.w3.org/2000/svg">
<path d="M217.643 1L0.796631 132.618V393.697L217.643 520.999L440.994 393.697V132.618L217.643 1Z" fill="white" stroke="#DFDDDD"/>
<path d="M219.992 22.6676L20.3132 143.866V384.276L219.992 501.5L425.661 384.276V143.866L219.992 22.6676Z" fill="#F0DB4F" fill-opacity="0.9" stroke="#DFDDDD"/>
<path d="M81.1953 120.013H363.169V401.989H81.1953V120.013Z" fill="#F0DB4F" fill-opacity="0.9"/>
<path d="M340.092 334.737C338.027 321.873 329.638 311.068 304.791 300.992C296.16 297.026 286.537 294.185 283.67 287.644C282.652 283.837 282.517 281.693 283.161 279.389C285.01 271.911 293.937 269.579 301.012 271.724C305.569 273.251 309.882 276.762 312.484 282.364C324.651 274.485 324.627 274.537 333.123 269.122C330.012 264.3 328.352 262.074 326.316 260.011C318.998 251.837 309.026 247.627 293.079 247.949L284.771 249.023C276.811 251.035 269.225 255.213 264.776 260.815C251.428 275.961 255.235 302.468 271.477 313.376C287.479 325.387 310.986 328.119 313.988 339.35C316.91 353.099 303.884 357.55 290.936 355.968C281.395 353.984 276.088 349.134 270.351 340.316C259.792 346.427 259.792 346.427 248.935 352.671C251.509 358.3 254.214 360.847 258.53 365.724C278.956 386.442 330.069 385.424 339.236 354.065C339.608 352.988 342.077 345.807 340.092 334.737ZM234.485 249.609H208.111L208.003 317.796C208.003 332.297 208.753 345.591 206.394 349.666C202.536 357.68 192.537 356.687 187.981 355.133C183.343 352.853 180.984 349.612 178.252 345.03C177.502 343.715 176.939 342.697 176.75 342.618L155.306 355.75C158.872 363.068 164.125 369.42 170.853 373.547C180.903 379.579 194.411 381.428 208.539 378.184C217.733 375.506 225.667 369.958 229.82 361.514C235.825 350.443 234.537 337.043 234.483 322.222C234.618 298.042 234.485 273.866 234.485 249.609Z" fill="#323330"/>
</svg>
