<svg width="442" height="522" viewBox="0 0 442 522" fill="none" xmlns="http://www.w3.org/2000/svg">
<path d="M217.846 1.30737L1 132.925V394.004L217.846 521.307L441.197 394.004V132.925L217.846 1.30737Z" fill="white" stroke="#DFDDDD"/>
<path d="M220.195 22.975L20.5166 144.173V384.583L220.195 501.808L425.865 384.583V144.173L220.195 22.975Z" fill="white" stroke="#DFDDDD"/>
<path fill-rule="evenodd" clip-rule="evenodd" d="M275.307 346.697C275.704 345.932 276.086 345.257 276.41 344.558C276.615 344.111 276.93 344.022 277.375 344.034C280.041 344.109 282.706 344.191 285.374 344.217C287.64 344.241 289.91 344.198 292.178 344.173C294.733 344.142 297.288 344.008 299.841 344.081C303.24 344.18 306.553 344.845 309.628 346.358C313.301 348.167 316.079 350.922 317.973 354.553C319.182 356.87 319.883 359.329 320.163 361.94C320.568 365.723 320.302 369.419 319.102 373.038C317.615 377.522 314.792 380.955 310.87 383.526C307.852 385.505 304.542 386.674 300.994 387.342C297.239 388.05 293.472 387.822 289.705 387.834C285.574 387.85 281.445 387.761 277.314 387.714C276.591 387.707 276.488 387.57 276.679 386.881L276.855 386.246C277.257 384.98 277.474 384.924 278.758 384.712C279.648 384.568 280.57 384.234 281.316 383.74C281.749 383.453 281.927 382.705 282.097 382.129C282.243 381.625 282.25 381.072 282.254 380.541C282.313 372.483 282.374 364.427 282.407 356.374C282.414 354.339 282.367 352.299 282.254 350.266C282.174 348.843 281.414 347.869 279.721 347.532C278.403 347.271 277.076 347.069 275.752 346.836L275.307 346.697ZM313.129 366.208C312.95 364.603 312.863 362.985 312.576 361.404C311.889 357.609 310.228 354.303 307.311 351.713C302.593 347.527 296.914 346.883 290.962 347.382C289.607 347.495 289.315 347.958 289.294 349.351C289.261 351.327 289.228 353.303 289.225 355.28C289.216 361.547 289.216 367.815 289.225 374.082C289.228 375.866 289.247 377.649 289.298 379.428C289.355 381.249 290.016 382.79 291.799 383.496C294.611 384.608 297.568 384.74 300.518 384.286C305.231 383.564 308.527 380.818 310.739 376.703C312.489 373.438 312.983 369.873 313.129 366.208ZM324.584 387.549C324.528 386.573 324.928 385.766 325.422 385.025C325.556 384.825 326.017 384.834 326.335 384.771L329.031 384.237C329.984 384.034 330.485 383.394 330.619 382.46C330.708 381.844 330.793 381.22 330.8 380.597C330.859 375.663 330.915 370.73 330.939 365.796C330.962 360.855 330.944 355.915 330.944 350.974L330.922 350.031C330.826 348.443 330.059 347.619 328.483 347.386L325.064 346.866C324.643 346.81 324.49 346.608 324.643 346.233C324.906 345.596 325.158 344.935 325.53 344.361C325.669 344.149 326.137 344.067 326.452 344.074C328.085 344.097 329.718 344.22 331.351 344.217L345.563 344.133C348.302 344.13 350.946 344.608 353.402 345.918C356.106 347.358 357.618 349.586 358.051 352.621C358.503 355.809 357.536 358.496 355.207 360.63C354.249 361.51 353.01 362.084 351.899 362.799L351.537 363.025C352.567 363.403 353.548 363.73 354.503 364.121C357.298 365.267 359.522 367.057 360.698 369.916C361.627 372.172 361.627 374.525 361.077 376.863C360.221 380.524 357.809 382.959 354.673 384.801C351.73 386.53 348.544 387.537 345.151 387.707C342.022 387.864 338.879 387.806 335.743 387.841L333.927 387.85C330.906 387.782 327.883 387.704 324.859 387.625L324.584 387.549ZM337.611 373.224H337.642C337.642 374.772 337.62 376.32 337.649 377.868C337.668 378.87 337.632 379.901 337.849 380.865C338.173 382.307 338.832 383.608 340.451 384.023C342.636 384.585 344.869 384.698 347.081 384.314C349.85 383.832 352.059 382.444 353.271 379.806C354.169 377.847 354.303 375.769 353.995 373.647C353.586 370.852 352.101 368.824 349.633 367.495C348.015 366.622 346.288 366.088 344.448 366.017C342.387 365.94 340.324 365.935 338.263 365.871C337.684 365.855 337.604 366.149 337.606 366.624C337.618 368.822 337.611 371.022 337.611 373.224ZM341.999 362.695C343.126 362.639 344.401 362.622 345.669 362.495C348.097 362.253 349.807 361.032 350.699 358.71C351.153 357.531 351.134 356.317 351.146 355.091C351.181 351.899 349.318 349.283 346.285 348.2C343.945 347.365 341.531 347.351 339.103 347.417C338.119 347.443 337.679 347.873 337.665 348.864L337.519 361.778C337.512 362.291 337.733 362.512 338.232 362.528L341.999 362.695Z" fill="#94795D"/>
<path fill-rule="evenodd" clip-rule="evenodd" d="M94.8171 385.067L94.6453 387.288C93.0455 387.288 91.5704 387.276 90.0952 387.293C87.3167 387.321 84.5381 387.366 81.7573 387.406L81.489 387.422C81.0914 387.375 80.3692 387.375 80.3503 387.258C80.2327 386.596 80.2704 385.902 80.3009 385.218C80.3033 385.14 80.5739 385.041 80.7315 385.004L82.8936 384.521C84.2417 384.171 84.717 383.59 84.7805 382.197C84.8534 380.628 84.9263 379.056 84.9334 377.487C84.9546 373.624 84.931 369.765 84.9475 365.902C84.9499 364.999 84.637 364.326 83.7947 363.959C82.7924 363.517 81.7855 363.084 80.7715 362.674C80.2915 362.481 79.6681 362.375 79.7245 361.731C79.781 361.074 80.3856 360.903 80.955 360.773C83.3124 360.235 85.6721 359.71 88.0225 359.136C88.7801 358.95 89.5047 358.637 90.4105 358.322C90.4575 358.811 90.5446 359.277 90.5352 359.743L90.3964 361.957C90.394 362.206 90.5234 362.54 90.7093 362.679C90.8222 362.766 91.201 362.608 91.3892 362.463C93.3984 360.933 95.5253 359.613 97.9509 358.844C101.708 357.651 104.934 358.757 107.192 361.997C107.987 363.138 107.99 363.138 109.093 362.34C110.987 360.964 112.968 359.75 115.184 358.95C120.05 357.192 124.725 359.423 126.416 364.323C127.033 366.102 127.268 367.94 127.263 369.817L127.218 382.282C127.216 383.31 127.557 383.896 128.536 384.216C129.635 384.576 130.773 384.823 132.011 385.147L131.724 387.291C130.317 387.291 129.023 387.281 127.729 387.293C124.567 387.321 121.405 387.338 118.245 387.411C117.695 387.425 117.551 387.288 117.523 386.773C117.431 385.124 117.417 385.126 118.97 384.754L119.492 384.62C121.01 384.206 121.516 383.74 121.527 382.202C121.563 377.783 121.654 373.353 121.431 368.944C121.198 364.371 117.568 361.936 113.135 363.107C111.688 363.488 110.378 364.156 109.159 365.022C108.747 365.316 108.67 365.655 108.703 366.17C108.827 368.118 108.905 370.069 108.922 372.019C108.95 375.433 108.907 378.847 108.922 382.263C108.926 383.646 109.399 384.176 110.766 384.496L112.796 384.964L113.173 385.048C113.201 385.698 113.227 386.347 113.196 386.996C113.178 387.403 112.862 387.439 112.509 387.432C110.535 387.382 108.559 387.316 106.585 387.321C104.183 387.326 101.783 387.394 99.3837 387.436H98.819C98.819 386.747 98.7861 386.088 98.8426 385.432C98.8543 385.274 99.1319 385.053 99.3225 385.004L101.689 384.503C102.694 384.256 103.174 383.74 103.23 382.719C103.499 377.99 103.691 373.259 103.247 368.532C103.16 367.615 102.861 366.683 102.48 365.839C101.268 363.161 98.5414 362.044 95.3959 362.848C93.9019 363.229 92.5538 363.914 91.2786 364.778C90.6763 365.187 90.3893 365.728 90.3893 366.413C90.3893 371.13 90.4058 375.847 90.4199 380.562L90.4458 382.38C90.474 383.649 91.0128 384.317 92.2715 384.59C93.0808 384.773 93.8995 384.898 94.8171 385.067Z" fill="#50382B"/>
<path fill-rule="evenodd" clip-rule="evenodd" d="M237.057 358.804C237.421 360.578 237.414 362.173 236.111 363.382C234.817 364.585 233.179 364.18 231.582 363.912C231.73 364.754 231.895 365.469 231.975 366.194C232.556 371.579 230.239 375.576 225.244 377.861C223.357 378.722 221.355 379.042 219.31 379.207C218.294 379.287 217.405 380.063 217.308 380.898C217.209 381.745 217.741 382.616 218.804 382.87C220.058 383.169 221.366 383.253 222.653 383.401C225.415 383.717 228.208 383.86 230.937 384.354C235.064 385.098 237.367 388.7 236.64 392.845C235.993 396.534 233.857 399.219 230.878 401.277C225.86 404.755 220.355 405.771 214.492 403.997C211.139 402.981 208.775 400.776 207.958 397.209C207.549 395.424 207.984 393.807 209.328 392.596C210.925 391.161 212.664 389.881 214.337 388.526L214.878 387.982L214.257 387.547C212.551 386.738 211.186 385.629 210.657 383.705C210.476 383.053 210.664 382.625 211.217 382.291C212.158 381.724 213.094 381.148 214.024 380.562C214.461 380.289 214.894 380.007 215.301 379.691C215.856 379.268 215.807 378.953 215.144 378.708C213.6 378.138 212.229 377.313 211.165 376.042C209.389 373.922 208.885 371.398 209.031 368.732C209.26 364.568 211.52 361.825 215.195 360.06C219.564 357.964 223.947 357.832 228.401 359.743C230.048 360.449 231.784 360.599 233.551 360.477C234.871 360.383 236.024 359.884 237.057 358.804ZM220.957 388.639C217.677 388.61 216.649 389.015 214.725 390.975C212.57 393.172 212.582 396.219 214.732 398.426C216.365 400.099 218.402 400.882 220.668 401.117C223.315 401.39 225.921 401.28 228.326 399.955C230.89 398.536 232.165 395.901 231.589 393.248C231.111 391.057 229.497 390.055 227.533 389.479C225.298 388.824 222.988 388.7 220.957 388.639ZM214.515 367.681C214.635 368.591 214.685 369.513 214.887 370.405C215.412 372.716 216.416 374.746 218.715 375.774C221.414 376.986 224.86 376.466 226.041 372.678C226.851 370.083 226.752 367.507 225.775 364.975C225.34 363.846 224.639 362.891 223.634 362.19C221.291 360.554 217.063 360.338 215.341 363.952C214.781 365.126 214.562 366.375 214.515 367.681Z" fill="#4F382B"/>
<path fill-rule="evenodd" clip-rule="evenodd" d="M181.413 358.223C181.5 358.625 181.674 359.082 181.679 359.54C181.686 360.413 181.592 361.286 181.542 362.159V362.917L182.281 362.352C184.304 360.686 186.478 359.268 189.01 358.503C193.579 357.127 198.143 359.627 199.632 364.281C200.197 366.05 200.42 367.869 200.442 369.718C200.489 373.826 200.517 377.934 200.559 382.042C200.573 383.517 200.743 383.78 202.138 384.206C202.928 384.448 203.745 384.618 204.561 384.745C205.01 384.815 205.203 384.992 205.18 385.432L205.185 385.837C205.168 387.538 205.05 387.615 203.401 387.61C199.453 387.603 195.508 387.627 191.56 387.66C190.384 387.669 190.381 387.705 190.264 386.542L190.24 385.874C190.313 384.872 190.337 384.881 191.322 384.735C191.986 384.637 192.645 384.484 193.292 384.314C193.957 384.143 194.277 383.651 194.367 382.992C194.412 382.658 194.47 382.324 194.468 381.99C194.412 377.501 194.484 373.007 194.24 368.525C194.042 364.9 191.275 362.74 187.636 362.987C185.85 363.112 184.236 363.707 182.763 364.735C181.792 365.415 181.596 366.396 181.601 367.453C181.62 371.65 181.66 375.847 181.705 380.047C181.714 380.966 181.74 381.886 181.827 382.799C181.919 383.797 182.269 384.199 183.248 384.416C184.184 384.623 185.14 384.743 186.139 384.91L186.224 385.681C186.257 387.481 186.069 387.615 184.321 387.608C180.239 387.592 176.157 387.618 172.077 387.662C171.435 387.672 171.162 387.469 171.179 386.844L171.169 386.575C171.063 384.954 171.11 384.893 172.644 384.63L173.369 384.484C175.03 384.11 175.456 383.667 175.479 381.98C175.557 376.638 175.585 371.297 175.639 365.954C175.646 365.187 175.357 364.592 174.642 364.274C173.64 363.832 172.628 363.411 171.614 362.994C171.054 362.764 170.414 362.618 170.393 361.844C170.379 361.298 170.962 360.816 171.76 360.653C173.362 360.329 174.978 360.058 176.562 359.66C178.138 359.268 179.686 358.741 181.413 358.223Z" fill="#4F372B"/>
<path fill-rule="evenodd" clip-rule="evenodd" d="M269.674 372.179C269.599 377.169 268.303 381.204 264.774 384.232C260.304 388.074 253.33 389.38 247.63 386.507C245.197 385.281 243.409 383.402 242.244 380.962C240.459 377.209 240.012 373.264 240.943 369.222C241.865 365.225 244.286 362.328 247.91 360.453C251.636 358.526 255.561 357.774 259.699 358.785C264.934 360.063 268.696 364.331 269.444 369.765C269.578 370.718 269.63 371.683 269.674 372.179ZM263.612 374.882L263.409 374.859C263.409 374.388 263.435 373.918 263.404 373.447C263.233 370.516 262.574 367.723 260.875 365.269C259.264 362.945 257.069 361.573 254.212 361.373C251.015 361.147 248.328 362.935 247.385 366.201C245.969 371.104 246.449 375.882 248.938 380.374C250.022 382.331 251.629 383.776 253.782 384.536C258 386.02 261.741 384.098 262.84 379.778C263.244 378.183 263.362 376.515 263.612 374.882Z" fill="#4F382B"/>
<path fill-rule="evenodd" clip-rule="evenodd" d="M166.047 372.565C165.96 376.146 165.116 379.456 162.904 382.333C160.535 385.415 157.279 387.062 153.576 387.756C149.197 388.575 145.085 387.832 141.567 384.893C139.897 383.496 138.756 381.705 138.003 379.668C136.768 376.327 136.46 372.904 137.22 369.415C138.031 365.681 140.139 362.827 143.407 360.912C147.186 358.703 151.263 357.717 155.618 358.71C161.217 359.99 164.45 363.639 165.645 369.163C165.885 370.278 165.918 371.431 166.047 372.565ZM159.916 374.927L159.754 374.904V374.231C159.662 370.946 159.02 367.817 157.06 365.088C155.608 363.062 153.665 361.792 151.174 361.437C147.113 360.858 144.459 363.267 143.579 366.54C142.431 370.815 142.791 375.038 144.567 379.091C145.675 381.618 147.426 383.587 150.115 384.543C154.307 386.032 158.105 384.06 159.166 379.757C159.556 378.183 159.674 376.541 159.916 374.927Z" fill="#4F372B"/>
<path fill-rule="evenodd" clip-rule="evenodd" d="M263.786 190.019C266.673 198.364 268.748 206.883 269.432 215.71C270.279 226.665 269.893 237.543 267.583 248.316L267.287 249.178C266.562 249.18 265.823 249.088 265.115 249.199C259.132 250.14 253.156 251.114 247.178 252.083C240.998 253.085 234.812 254.048 228.644 255.116C226.458 255.492 223.752 255.043 222.87 258.064L222.447 258.207L222.745 240.143L222.442 196.557L225.322 196.063C230.029 195.294 234.737 194.51 239.452 193.76C245.075 192.868 250.703 191.998 256.33 191.127C258.815 190.746 261.301 190.391 263.786 190.019Z" fill="#439934"/>
<path fill-rule="evenodd" clip-rule="evenodd" d="M216.504 310.87C213.466 308.259 210.323 305.763 207.413 303.015C191.748 288.24 180.288 270.846 174.644 249.877C173.089 244.108 172.054 238.242 171.72 232.281C171.485 228.107 171.148 223.898 171.445 219.746C172.228 208.704 173.826 197.769 177.063 187.132L177.242 186.885C177.557 187.304 178.009 187.676 178.169 188.149C181.331 197.456 184.467 206.773 187.589 216.096C197.397 245.39 207.194 274.69 217.019 303.979C217.212 304.551 217.708 305.019 218.066 305.534L216.504 310.87Z" fill="#45A538"/>
<path fill-rule="evenodd" clip-rule="evenodd" d="M263.786 190.019C261.299 190.388 258.812 190.746 256.33 191.127C250.702 191.998 245.075 192.868 239.452 193.76C234.739 194.508 230.032 195.291 225.321 196.063L222.442 196.557L222.418 194.68C222.322 193.136 222.162 191.593 222.141 190.05L221.818 160.514C221.743 154.352 221.63 148.19 221.505 142.031C221.428 138.203 221.345 134.373 221.174 130.55C221.079 128.496 220.748 126.451 220.616 124.397C220.538 123.216 220.642 122.026 220.668 120.84C222.136 123.685 223.573 126.55 225.081 129.373C227.465 133.837 231.264 137.126 234.688 140.713C248.206 154.903 257.803 171.39 263.786 190.019Z" fill="#46A037"/>
<path fill-rule="evenodd" clip-rule="evenodd" d="M222.449 258.207L222.872 258.064C223.755 255.043 226.46 255.492 228.646 255.116C234.815 254.048 241 253.086 247.18 252.083C253.159 251.116 259.134 250.142 265.117 249.199C265.826 249.088 266.564 249.18 267.289 249.178C266.171 253.168 265.291 257.245 263.873 261.125C262.261 265.524 260.313 269.82 258.245 274.032C255.154 280.325 251.302 286.197 246.827 291.578C243.378 295.724 239.534 299.561 235.683 303.346C233.551 305.438 231.043 307.144 228.705 309.026L228.098 308.612L225.917 306.748L223.66 301.798C222.105 296.006 221.291 290.11 221.155 284.115L221.197 283.108L221.505 278.747C221.607 277.257 221.743 275.77 221.806 274.281C222.032 268.926 222.235 263.567 222.449 258.207Z" fill="#409433"/>
<path fill-rule="evenodd" clip-rule="evenodd" d="M222.449 258.207C222.237 263.567 222.035 268.929 221.806 274.288C221.743 275.78 221.609 277.267 221.505 278.753L220.131 279.273C217.077 270.284 214.021 261.388 211.033 252.472C206.09 237.718 201.208 222.943 196.273 208.184C192.289 196.275 188.271 184.373 184.231 172.48C184.041 171.925 183.5 171.487 183.123 170.995L191.922 154.816C192.226 155.34 192.623 155.832 192.814 156.397C196.884 168.443 200.947 180.491 204.975 192.551C210.217 208.243 215.424 223.943 220.661 239.638C220.87 240.263 221.213 240.842 221.543 241.546L222.747 240.143C222.646 246.166 222.547 252.184 222.449 258.207Z" fill="#4FAA41"/>
<path fill-rule="evenodd" clip-rule="evenodd" d="M183.121 170.995C183.5 171.487 184.041 171.924 184.229 172.48C188.269 184.373 192.287 196.273 196.27 208.184C201.206 222.943 206.088 237.718 211.031 252.471C214.019 261.388 217.075 270.281 220.129 279.273L221.503 278.753L221.195 283.115L220.915 284.12C220.437 288.894 220.035 293.677 219.451 298.441C219.16 300.829 218.536 303.172 218.063 305.534C217.708 305.019 217.209 304.551 217.016 303.979C207.189 274.69 197.395 245.39 187.586 216.096C184.464 206.773 181.326 197.456 178.166 188.149C178.006 187.676 177.555 187.304 177.239 186.885L183.121 170.995Z" fill="#4AA73C"/>
<path fill-rule="evenodd" clip-rule="evenodd" d="M222.745 240.143L221.541 241.546C221.211 240.842 220.868 240.263 220.658 239.638C215.421 223.943 210.215 208.243 204.973 192.551C200.945 180.491 196.882 168.442 192.812 156.397C192.621 155.832 192.224 155.34 191.92 154.816L202.801 140.502C203.145 140.958 203.634 141.365 203.811 141.881C206.832 150.727 209.824 159.58 212.803 168.44C215.584 176.717 218.322 185.003 221.136 193.266C221.324 193.819 221.981 194.209 222.418 194.68L222.442 196.557L222.745 240.143Z" fill="#57AE47"/>
<path fill-rule="evenodd" clip-rule="evenodd" d="M222.418 194.68C221.978 194.211 221.324 193.821 221.136 193.266C218.325 185.003 215.584 176.717 212.803 168.44C209.824 159.58 206.832 150.727 203.811 141.88C203.634 141.365 203.145 140.958 202.802 140.502C206.34 137.036 209.768 133.446 213.45 130.14C216.722 127.204 219.353 124.056 219.475 119.414L219.734 118.49L220.666 120.838C220.642 122.024 220.536 123.214 220.614 124.395C220.748 126.449 221.08 128.494 221.171 130.547C221.343 134.371 221.425 138.201 221.503 142.029C221.628 148.188 221.741 154.35 221.816 160.511L222.138 190.047C222.162 191.593 222.324 193.136 222.418 194.68Z" fill="#60B24F"/>
<path fill-rule="evenodd" clip-rule="evenodd" d="M218.066 305.532C218.539 303.17 219.162 300.827 219.454 298.439C220.037 293.677 220.44 288.891 220.917 284.118L221.037 284.099L221.155 284.12C221.291 290.115 222.105 296.011 223.66 301.803C223.343 302.222 222.898 302.591 222.729 303.062C221.423 306.746 220.19 310.461 218.877 314.143C218.699 314.646 218.195 315.039 217.845 315.479L216.501 310.868L218.066 305.532Z" fill="#A9AA88"/>
<path fill-rule="evenodd" clip-rule="evenodd" d="M217.844 315.481C218.195 315.039 218.699 314.648 218.877 314.145C220.19 310.463 221.423 306.748 222.729 303.064C222.896 302.593 223.343 302.224 223.66 301.805L225.917 306.755C225.472 307.386 224.856 307.957 224.608 308.661L220.289 321.347C220.11 321.857 219.505 322.215 219.096 322.645L217.844 315.481Z" fill="#B6B598"/>
<path fill-rule="evenodd" clip-rule="evenodd" d="M219.096 322.643C219.503 322.212 220.11 321.855 220.289 321.344L224.609 308.658C224.853 307.955 225.472 307.383 225.917 306.753L228.1 308.614C227.046 309.656 226.46 310.861 226.813 312.383L226.15 314.554C225.848 314.926 225.411 315.251 225.263 315.677C223.755 319.996 222.317 324.339 220.797 328.656C220.604 329.202 220.07 329.633 219.696 330.117L219.096 322.643Z" fill="#C2C1A7"/>
<path fill-rule="evenodd" clip-rule="evenodd" d="M219.694 330.115C220.07 329.63 220.604 329.2 220.795 328.654C222.315 324.337 223.755 319.994 225.26 315.674C225.408 315.248 225.846 314.926 226.147 314.552L225.232 324.518C224.987 324.8 224.634 325.047 224.517 325.374L221.472 334.098C221.258 334.693 220.849 335.225 220.529 335.783C220.244 335.411 219.736 335.051 219.713 334.665C219.623 333.155 219.687 331.633 219.694 330.115Z" fill="#CECDB7"/>
<path fill-rule="evenodd" clip-rule="evenodd" d="M220.531 335.785C220.851 335.228 221.261 334.696 221.475 334.101L224.519 325.377C224.637 325.048 224.992 324.803 225.234 324.521L225.258 331.061L223.067 336.677L220.531 335.785Z" fill="#DBDAC7"/>
<path fill-rule="evenodd" clip-rule="evenodd" d="M223.068 336.677L225.258 331.061L225.71 337.705L223.068 336.677Z" fill="#EBE9DC"/>
<path fill-rule="evenodd" clip-rule="evenodd" d="M226.811 312.383C226.46 310.863 227.044 309.658 228.098 308.614L228.705 309.028L226.811 312.383Z" fill="#CECDB7"/>
<path fill-rule="evenodd" clip-rule="evenodd" d="M221.155 284.122L221.037 284.101L220.917 284.12L221.197 283.115L221.155 284.122Z" fill="#4FAA41"/>
</svg>
