<svg width="443" height="522" viewBox="0 0 443 522" fill="none" xmlns="http://www.w3.org/2000/svg">
<path d="M218.182 0.958496L1.33643 132.577V393.655L218.182 520.958L441.534 393.655V132.577L218.182 0.958496Z" fill="white" stroke="#DFDDDD"/>
<path d="M220.532 22.626L20.853 143.824V384.234L220.532 501.459L426.201 384.234V143.824L220.532 22.626Z" fill="#8CFF00" fill-opacity="0.27" stroke="#DFDDDD"/>
<path d="M349.697 304.075C348.951 304.075 348.209 303.879 347.555 303.498L340.734 299.462C339.714 298.893 340.211 298.689 340.548 298.573C341.908 298.1 342.183 297.989 343.632 297.17C343.784 297.086 343.982 297.116 344.139 297.209L349.378 300.321C349.569 300.427 349.839 300.427 350.011 300.321L370.443 288.529C370.636 288.421 370.757 288.202 370.757 287.975V264.395C370.757 264.163 370.636 263.95 370.441 263.831L350.016 252.049C349.826 251.941 349.576 251.941 349.386 252.049L328.964 263.834C328.769 263.95 328.642 264.171 328.642 264.395V287.975C328.642 288.202 328.769 288.415 328.964 288.521L334.561 291.757C337.598 293.273 339.459 291.487 339.459 289.69V266.406C339.459 266.079 339.725 265.819 340.052 265.819H342.644C342.966 265.819 343.233 266.079 343.233 266.406V289.69C343.233 293.742 341.027 296.066 337.184 296.066C336.002 296.066 335.073 296.066 332.478 294.789L327.121 291.705C325.795 290.938 324.979 289.507 324.979 287.978V264.398C324.979 262.866 325.795 261.437 327.121 260.675L347.553 248.867C348.845 248.139 350.562 248.139 351.844 248.867L372.276 260.675C373.599 261.44 374.42 262.869 374.42 264.398V287.978C374.42 289.51 373.599 290.933 372.276 291.705L351.844 303.501C351.195 303.879 350.457 304.075 349.697 304.075ZM356.012 287.829C347.066 287.829 345.195 283.723 345.195 280.281C345.195 279.956 345.46 279.691 345.787 279.691H348.428C348.724 279.691 348.969 279.902 349.015 280.191C349.411 282.881 350.603 284.237 356.012 284.237C360.313 284.237 362.146 283.264 362.146 280.978C362.146 279.66 361.626 278.685 354.938 278.028C349.347 277.475 345.89 276.242 345.89 271.765C345.89 267.644 349.365 265.183 355.188 265.183C361.734 265.183 364.973 267.456 365.382 272.332C365.398 272.496 365.338 272.658 365.228 272.785C365.114 272.9 364.96 272.972 364.795 272.972H362.141C361.866 272.972 361.624 272.779 361.567 272.512C360.929 269.68 359.384 268.776 355.186 268.776C350.488 268.776 349.942 270.416 349.942 271.639C349.942 273.124 350.585 273.557 356.931 274.396C363.21 275.228 366.193 276.401 366.193 280.816C366.196 285.277 362.484 287.829 356.012 287.829Z" fill="#83CD29"/>
<path d="M307.626 272.362C308.432 271.891 308.929 271.031 308.929 270.097V264.037C308.929 263.105 308.435 262.246 307.626 261.774L286.095 249.274C285.284 248.803 284.286 248.8 283.472 249.269L261.807 261.777C260.999 262.246 260.5 263.108 260.5 264.042V289.054C260.5 289.993 261.004 290.864 261.823 291.329L283.351 303.596C284.144 304.051 285.117 304.054 285.918 303.611L298.938 296.372C299.353 296.141 299.61 295.708 299.613 295.24C299.615 294.766 299.363 294.328 298.954 294.094L277.155 281.583C276.746 281.349 276.496 280.917 276.496 280.451V272.609C276.496 272.141 276.746 271.711 277.15 271.479L283.938 267.567C284.34 267.332 284.839 267.332 285.243 267.567L292.032 271.479C292.438 271.714 292.688 272.144 292.688 272.609V278.777C292.688 279.248 292.938 279.681 293.342 279.913C293.749 280.147 294.248 280.147 294.655 279.91L307.626 272.362Z" fill="#404137"/>
<path d="M284.463 271.188C284.62 271.101 284.811 271.101 284.965 271.188L289.122 273.59C289.277 273.68 289.372 273.848 289.372 274.025V278.826C289.372 279.006 289.277 279.171 289.122 279.261L284.965 281.66C284.811 281.75 284.617 281.75 284.463 281.66L280.308 279.261C280.151 279.171 280.056 279.006 280.056 278.826V274.025C280.056 273.848 280.151 273.68 280.308 273.59L284.463 271.188Z" fill="#83CD29"/>
<path d="M228.084 281.176C228.084 281.408 227.961 281.624 227.757 281.743L220.318 286.031C220.114 286.15 219.865 286.15 219.664 286.031L212.224 281.743C212.021 281.624 211.897 281.408 211.897 281.176V272.584C211.897 272.352 212.024 272.133 212.224 272.015L219.664 267.721C219.867 267.6 220.117 267.6 220.32 267.721L227.763 272.015C227.963 272.133 228.087 272.352 228.087 272.584V281.176H228.084ZM230.095 217.551C229.691 217.327 229.196 217.332 228.795 217.567C228.396 217.803 228.149 218.231 228.149 218.694V251.941C228.149 252.265 227.974 252.569 227.693 252.733C227.41 252.896 227.06 252.896 226.777 252.733L221.35 249.606C220.542 249.14 219.546 249.14 218.737 249.606L197.067 262.111C196.256 262.58 195.757 263.445 195.757 264.379V289.399C195.757 290.333 196.256 291.195 197.065 291.667L218.735 304.18C219.543 304.648 220.542 304.648 221.353 304.18L243.028 291.667C243.836 291.195 244.336 290.333 244.336 289.399V227.032C244.336 226.085 243.821 225.21 242.994 224.746L230.095 217.551Z" fill="#404137"/>
<path d="M153.83 249.135C154.638 248.666 155.637 248.666 156.446 249.135L178.116 261.638C178.924 262.106 179.423 262.971 179.423 263.906V288.933C179.423 289.867 178.924 290.732 178.116 291.201L156.448 303.714C155.64 304.18 154.641 304.18 153.83 303.714L132.168 291.201C131.36 290.732 130.86 289.867 130.86 288.933V263.903C130.86 262.971 131.36 262.106 132.168 261.638L153.83 249.135Z" fill="#83CD29"/>
<path d="M114.423 263.697C114.423 262.755 113.929 261.89 113.116 261.424L91.4533 248.957C91.0826 248.741 90.6733 248.63 90.2589 248.615H90.0349C89.623 248.63 89.2111 248.741 88.8405 248.957L67.1755 261.424C66.3698 261.89 65.8652 262.755 65.8652 263.697L65.9116 297.266C65.9116 297.734 66.1561 298.169 66.5654 298.396C66.967 298.638 67.4638 298.638 67.8654 298.396L80.7367 291.023C81.5502 290.539 82.047 289.687 82.047 288.753V273.07C82.047 272.133 82.5413 271.271 83.3521 270.802L88.8353 267.646C89.242 267.407 89.69 267.294 90.143 267.294C90.5909 267.294 91.0492 267.407 91.4482 267.646L96.9262 270.802C97.7371 271.271 98.2365 272.133 98.2365 273.07V288.753C98.2365 289.687 98.7385 290.544 99.5468 291.023L112.418 298.396C112.822 298.638 113.327 298.638 113.726 298.396C114.125 298.167 114.374 297.732 114.374 297.266L114.423 263.697Z" fill="#404137"/>
</svg>
