<svg width="442" height="522" viewBox="0 0 442 522" fill="none" xmlns="http://www.w3.org/2000/svg">
<path d="M217.722 1.2323L0.876465 132.85V393.929L217.722 521.232L441.074 393.929V132.85L217.722 1.2323Z" fill="white" stroke="#DFDDDD"/>
<path d="M220.072 22.8999L20.3928 144.098V384.508L220.072 501.733L425.741 384.508V144.098L220.072 22.8999Z" fill="#212121" fill-opacity="0.9" stroke="#DFDDDD"/>
<path d="M222.262 245.593C233.418 245.593 242.462 236.55 242.462 225.393C242.462 214.237 233.418 205.194 222.262 205.194C211.106 205.194 202.062 214.237 202.062 225.393C202.062 236.55 211.106 245.593 222.262 245.593Z" fill="#61DAFB"/>
<path d="M222.262 299.677C238.118 315.098 253.757 324.221 266.354 324.221C270.481 324.221 274.391 323.352 277.649 321.397C288.943 314.881 293.07 298.591 289.161 275.35C288.509 271.223 287.64 267.096 286.554 262.752C290.898 261.449 294.808 260.146 298.718 258.843C320.655 250.372 332.818 238.643 332.818 225.828C332.818 212.796 320.655 201.067 298.718 192.813C294.808 191.293 290.898 189.989 286.554 188.903C287.64 184.559 288.509 180.432 289.161 176.306C292.853 152.63 288.726 136.123 277.432 129.607C274.174 127.652 270.264 126.783 266.137 126.783C253.757 126.783 237.901 135.906 222.045 151.327C206.406 135.906 190.768 126.783 178.17 126.783C174.043 126.783 170.134 127.652 166.876 129.607C155.581 136.123 151.454 152.413 155.364 175.654C156.015 179.781 156.884 183.908 157.97 188.252C153.626 189.555 149.717 190.858 145.807 192.161C123.869 200.632 111.706 212.361 111.706 225.176C111.706 238.208 123.869 249.937 145.807 258.191C149.717 259.711 153.626 261.015 157.97 262.101C156.884 266.445 156.015 270.572 155.364 274.698C151.671 297.939 155.798 314.446 166.876 320.745C170.134 322.7 174.043 323.569 178.17 323.569C190.768 324.003 206.406 314.881 222.262 299.677ZM210.099 270.354C214.009 270.572 218.135 270.572 222.262 270.572C226.389 270.572 230.516 270.572 234.426 270.354C230.516 275.567 226.389 280.346 222.262 284.907C218.135 280.346 214.009 275.567 210.099 270.354ZM183.166 247.982C185.338 251.675 187.293 255.15 189.682 258.625C182.949 257.757 176.65 256.671 170.568 255.367C172.523 249.503 174.695 243.421 177.301 237.339C179.039 240.815 180.994 244.507 183.166 247.982ZM170.568 195.637C176.65 194.333 182.949 193.247 189.682 192.379C187.51 195.854 185.338 199.329 183.166 203.021C180.994 206.714 179.039 210.189 177.301 213.882C174.478 207.583 172.306 201.501 170.568 195.637ZM182.514 225.393C185.338 219.529 188.379 213.664 191.854 207.8C195.112 202.153 198.804 196.505 202.497 190.858C209.013 190.424 215.529 190.207 222.262 190.207C229.213 190.207 235.729 190.424 242.028 190.858C245.937 196.505 249.413 202.153 252.671 207.8C256.146 213.664 259.187 219.529 262.01 225.393C259.187 231.258 256.146 237.122 252.671 242.987C249.413 248.634 245.72 254.281 242.028 259.929C235.512 260.363 228.995 260.58 222.262 260.58C215.312 260.58 208.796 260.363 202.497 259.929C198.587 254.281 195.112 248.634 191.854 242.987C188.379 237.122 185.338 231.258 182.514 225.393ZM267.44 213.664L261.576 202.804C259.404 199.112 257.449 195.637 255.06 192.161C261.793 193.03 268.092 194.116 274.174 195.419C272.219 201.501 270.047 207.583 267.44 213.664ZM267.44 237.122C270.047 243.204 272.219 249.286 274.174 255.15C268.092 256.453 261.793 257.539 255.06 258.408C257.232 254.933 259.404 251.458 261.576 247.765C263.531 244.507 265.486 240.815 267.44 237.122ZM272.436 312.492C270.698 313.578 268.526 314.012 266.137 314.012C255.494 314.012 242.245 305.324 229.213 292.292C235.512 285.559 241.593 277.956 247.675 269.486C257.883 268.617 267.658 267.096 276.78 264.924C277.866 268.834 278.518 272.744 279.169 276.653C282.21 295.115 279.821 308.365 272.436 312.492ZM283.731 198.026C308.057 204.976 322.61 215.619 322.61 225.393C322.61 233.864 312.619 242.335 295.025 249.068C291.55 250.372 287.64 251.675 283.731 252.761C280.907 243.856 277.432 234.733 273.088 225.393C277.432 216.054 281.124 206.931 283.731 198.026ZM266.354 136.775C268.744 136.775 270.698 137.209 272.653 138.295C279.821 142.422 282.427 155.454 279.387 174.134C278.735 177.826 277.866 181.736 276.997 185.862C267.875 183.908 258.101 182.387 247.892 181.301C242.028 172.83 235.729 165.228 229.43 158.495C242.462 145.68 255.711 136.775 266.354 136.775ZM234.426 180.432C230.516 180.215 226.389 180.215 222.262 180.215C218.135 180.215 214.009 180.215 210.099 180.432C214.009 175.22 218.135 170.441 222.262 165.88C226.389 170.441 230.516 175.437 234.426 180.432ZM172.088 138.295C173.826 137.209 175.998 136.775 178.387 136.775C189.03 136.775 202.28 145.463 215.312 158.495C209.013 165.228 202.931 172.83 196.849 181.301C186.641 182.17 176.867 183.69 167.744 185.862C166.658 181.953 166.007 178.043 165.355 174.134C162.314 155.671 164.704 142.639 172.088 138.295ZM160.794 252.761C136.467 245.81 121.915 235.167 121.915 225.393C121.915 216.922 131.906 208.452 149.499 201.718C152.975 200.415 156.884 199.112 160.794 198.026C163.617 206.931 167.093 216.054 171.437 225.393C167.093 234.733 163.4 244.073 160.794 252.761ZM165.355 276.653C166.007 272.961 166.876 269.051 167.744 264.924C176.867 266.879 186.641 268.399 196.849 269.486C202.714 277.956 209.013 285.559 215.312 292.292C202.28 305.107 189.03 314.012 178.387 314.012C175.998 314.012 174.043 313.578 172.088 312.492C164.704 308.365 162.314 295.115 165.355 276.653ZM156.233 366.141C161.011 360.276 161.228 353.76 158.622 347.244C156.015 340.728 150.585 337.687 143.852 337.47C135.816 337.253 127.562 337.47 119.525 337.47H118.005V393.725H124.521V372.44H134.73C136.033 372.44 137.119 372.874 137.77 373.96L150.803 394.16C151.02 394.594 151.671 395.246 152.106 395.246H160.577C155.364 387.209 150.368 379.607 145.155 371.788C149.717 371.136 153.626 369.616 156.233 366.141ZM124.521 365.706V344.203H126.91C131.906 344.203 137.119 343.986 142.114 344.42C147.979 344.638 152.106 349.199 152.106 355.063C152.106 360.928 147.327 365.489 141.463 365.706C136.25 365.923 131.037 365.706 124.521 365.706ZM208.578 368.53C205.103 353.326 191.202 349.416 180.559 354.195C172.306 357.887 168.613 365.055 168.396 373.96C168.179 380.693 170.134 386.775 175.346 391.336C181.211 396.549 188.379 397.201 195.763 395.897C199.89 395.029 203.583 393.074 206.406 390.033C205.32 388.513 204.234 386.992 203.148 385.689C197.067 390.902 190.333 392.639 182.949 389.164C178.17 386.775 175.781 380.91 175.346 376.566H209.013V373.743C209.23 371.788 209.013 370.05 208.578 368.53ZM175.781 372.005C175.129 365.489 181.645 358.539 188.813 358.539C197.067 358.321 202.28 363.317 202.497 372.005H175.781ZM242.462 353.109C239.204 352.457 235.729 352.24 232.471 352.457C227.258 352.891 222.697 355.281 219.004 359.19C220.09 360.711 220.959 362.231 222.262 363.969C222.697 363.534 223.131 363.1 223.565 362.883C227.041 359.625 231.168 357.887 236.163 358.321C240.073 358.539 243.765 359.842 244.851 363.751C245.72 366.792 245.503 370.05 245.72 373.308C245.068 373.308 244.851 373.091 244.634 372.874C239.421 368.53 233.557 367.661 227.258 369.182C221.393 370.702 217.701 375.263 217.267 381.128C216.832 387.861 219.873 392.857 225.737 395.246C229.43 396.766 233.557 396.766 237.466 395.897C240.507 395.246 241.81 393.508 246.155 391.119V393.943H252.236C252.236 385.255 252.453 374.612 252.236 364.62C252.236 358.321 248.544 354.412 242.462 353.109ZM245.503 380.476C245.286 381.128 245.503 381.779 245.503 382.431C245.503 386.992 244.417 388.513 240.073 390.25C237.032 391.336 233.774 391.771 230.516 390.685C226.823 389.599 224.217 386.341 224.217 382.648C224 378.956 226.389 375.263 230.082 374.177C235.077 372.44 239.638 373.526 243.765 376.566C245.068 377.652 245.937 378.738 245.503 380.476ZM279.387 358.973C285.034 357.235 290.247 358.321 294.156 363.1L294.808 363.534C296.328 362.231 297.632 360.928 299.369 359.407C298.718 358.756 298.5 358.321 298.066 357.67C291.767 350.937 279.387 350.068 271.784 355.498C261.141 363.317 261.359 378.521 266.572 386.558C271.567 394.16 278.735 396.766 287.206 395.68C292.201 395.029 296.328 392.639 299.586 388.513C298.066 387.209 296.546 385.906 295.025 384.386C294.591 384.82 294.373 385.037 294.156 385.472C288.292 391.988 278.518 391.336 273.305 384.386C270.264 380.259 269.612 375.48 270.481 370.702C270.916 365.272 273.739 360.928 279.387 358.973ZM324.565 388.513C324.13 388.73 323.913 388.947 323.913 388.947C322.175 390.25 320.438 390.467 318.483 389.816C316.528 388.947 316.311 387.209 316.094 385.472V360.711C316.094 360.276 316.094 361.145 316.311 358.973H324.565V352.457H315.877V341.597H309.36V353.326H303.713C303.279 353.326 302.627 353.76 302.627 354.195C302.41 355.715 302.627 356.801 302.627 358.973H309.578V386.775C309.578 390.25 310.447 393.291 313.487 395.029C316.745 396.983 323.044 396.549 325.868 394.16C326.302 393.943 326.519 393.074 326.519 392.857C325.868 391.553 325.216 390.033 324.565 388.513Z" fill="#61DAFB"/>
</svg>
