<svg width="442" height="522" viewBox="0 0 442 522" fill="none" xmlns="http://www.w3.org/2000/svg">
<path d="M217.486 1.30737L0.640015 132.925V394.004L217.486 521.307L440.837 394.004V132.925L217.486 1.30737Z" fill="white" stroke="#DFDDDD"/>
<path d="M219.835 22.975L20.1565 144.173V384.583L219.835 501.808L425.505 384.583V144.173L219.835 22.975Z" fill="#CB6699" fill-opacity="0.9" stroke="#DFDDDD"/>
<path fill-rule="evenodd" clip-rule="evenodd" d="M83.3345 242.692C83.3345 244.361 83.8257 245.462 84.101 246.532C85.8951 253.492 89.7514 259.466 94.3269 264.914C100.844 272.679 108.824 278.93 117 284.808C124.091 289.906 131.326 294.889 138.446 299.949C139.668 300.818 140.824 301.817 142.15 302.882C141.009 303.499 140.06 304.043 139.072 304.543C129.677 309.309 120.638 314.651 112.306 321.122C107.284 325.024 102.429 329.169 98.9996 334.587C93.482 343.302 91.5289 352.585 95.6416 362.498C96.8424 365.393 98.6745 367.894 101.259 369.743C102.097 370.341 103.036 370.934 104.016 371.167C106.527 371.758 109.085 372.145 111.627 372.612L118.825 372.607C126.784 371.898 134.03 369.171 140.577 364.653C150.81 357.59 157.704 348.121 160.668 335.969C162.823 327.136 162.911 318.293 160.371 309.501C160.136 308.685 159.84 307.885 159.531 307.095C159.223 306.304 158.86 305.535 158.433 304.551L174.75 295.167L174.995 295.376C174.698 296.347 174.382 297.315 174.114 298.295C172.175 305.376 170.887 312.581 171.35 319.931C171.843 327.762 174.029 335.093 178.614 341.636C182.321 346.928 191.153 347.125 195.093 341.814C196.491 339.927 197.846 337.955 198.864 335.85C201.524 330.356 203.987 324.765 206.529 319.212L206.973 318.196C206.79 320.826 206.576 323.135 206.479 325.446C206.327 329.056 206.538 332.644 207.772 336.078C208.829 339.016 210.625 341.211 213.99 341.598C216.292 341.861 218.126 340.807 219.819 339.471C222.462 337.385 224.61 334.808 226.205 331.88C230.716 323.595 235.348 315.36 239.437 306.867C243.861 297.68 247.729 288.226 251.837 278.883L252.516 277.226C253.486 281.04 254.163 284.775 255.409 288.311C256.856 292.414 258.648 296.42 260.599 300.314C261.522 302.154 261.415 303.347 260.136 304.89C254.782 311.345 249.521 317.878 244.255 324.404C243.09 325.845 241.929 327.311 240.958 328.885C240.372 329.841 239.983 331.006 239.819 332.122C239.504 334.253 240.821 336.308 243.101 336.799C245.185 337.248 247.404 337.414 249.528 337.257C256.878 336.716 263.551 334.136 269.45 329.765C277.094 324.103 279.548 316.376 277.697 307.218C277.196 304.733 276.311 302.317 275.45 299.923C275.063 298.843 275.037 298.086 275.742 297.08C281.852 288.354 287.073 279.096 291.929 269.625C292.121 269.252 292.318 268.88 292.655 268.481C294.228 276.668 296.597 284.559 300.84 291.719C298.676 293.805 296.533 295.696 294.594 297.78C290.325 302.37 286.622 307.353 284.691 313.431C283.86 316.051 283.222 318.713 283.592 321.511C284.166 325.857 287.726 328.681 292 327.691C301.146 325.574 309.042 321.265 314.811 313.63C318.693 308.49 319.047 302.756 317.421 296.75C316.975 295.117 316.446 293.511 315.876 291.638C318.133 290.938 320.333 290.098 322.609 289.578C334.425 286.882 346.112 287.352 357.499 291.619C364.146 294.111 369.516 298.281 372.701 304.84C376.591 312.859 374.441 320.467 366.882 325.536C366.177 326.008 365.37 326.381 364.787 326.972C364.428 327.335 364.212 328.061 364.3 328.562C364.35 328.854 365.121 329.219 365.565 329.215C368.05 329.196 370.064 327.893 371.999 326.554C376.845 323.201 380.38 318.69 381.142 312.75L381.292 312.304L381.109 308.435C381.035 308.212 381.164 307.992 381.147 307.823C380.117 299.173 375.497 292.464 368.776 287.205C360.992 281.118 351.801 278.612 342.08 278.216C334.159 277.893 326.373 279.07 318.907 281.783C316.778 282.554 314.668 283.468 312.528 284.329C312.241 283.809 311.932 283.311 311.678 282.796C309.481 278.296 306.818 273.996 306.229 268.837C305.812 265.173 305.299 261.514 306.17 257.89C307.008 254.404 308.099 250.977 309.127 247.538C309.656 245.768 309.284 244.776 307.594 243.978C307.005 243.701 306.365 243.459 305.729 243.366C301.576 242.763 297.48 243.108 293.457 244.277C292.033 244.693 290.999 245.49 290.683 247.066C290.503 247.97 290.135 248.836 289.878 249.729C288.827 253.438 288.082 257.218 286.383 260.752C282.125 269.616 277.265 278.145 272.291 286.612C271.752 287.526 271.185 288.423 270.506 289.531C268.76 285.876 266.897 282.597 266.332 278.752C265.694 274.404 265.191 270.064 266.273 265.75C267.077 262.532 268.129 259.373 269.097 256.198C269.555 254.688 269.344 253.896 267.977 253.101C267.286 252.7 266.505 252.344 265.727 252.228C261.42 251.589 257.177 251.924 253.021 253.267C251.733 253.685 251.056 254.518 250.662 255.847C249.504 259.767 248.517 263.782 246.891 267.511C240.308 282.604 233.535 297.619 226.769 312.631C225.357 315.766 223.703 318.792 222.111 321.844C221.708 322.617 221.119 323.298 220.616 324.025C220.212 323.548 220.056 323.22 220.058 322.893C220.07 320.963 219.84 318.977 220.208 317.112C221.321 311.468 222.602 305.856 223.953 300.265C225.068 295.646 226.366 291.071 227.602 286.484C228.018 284.948 228.025 283.513 226.921 282.222C225.068 280.06 221.195 279.585 218.898 281.251L217.882 281.825L218.079 280.188C218.563 276.678 218.66 273.18 217.697 269.722C216.496 265.413 213.421 262.933 208.95 263.07C206.866 263.134 204.678 263.49 202.749 264.25C194.635 267.43 188.396 273.061 183.085 279.837C182.603 280.451 181.967 281.011 181.288 281.389C174.423 285.195 167.536 288.954 160.651 292.728L152.989 296.926C150.933 294.965 149.066 292.932 146.947 291.206C140.475 285.928 133.899 280.781 127.382 275.563C121.606 270.937 116.01 266.12 111.729 259.995C108.544 255.438 106.492 250.452 106.295 244.819C106.045 237.64 108.082 231.08 111.736 224.974C116.411 217.162 122.788 210.892 129.798 205.213C137.214 199.209 145.235 194.112 153.549 189.458C165.179 182.948 177.142 177.186 189.969 173.382C203.121 169.481 216.465 167.248 230.23 168.804C235.64 169.417 240.894 170.656 245.719 173.302C249.414 175.326 252.444 177.977 253.854 182.12C255.245 186.197 255.202 190.329 254.239 194.47C252.281 202.857 247.689 209.77 241.91 215.947C232.432 226.073 220.87 232.967 207.853 237.521C200.342 240.148 192.615 241.798 184.679 242.464C178.203 243.008 171.862 242.434 165.73 240.181C161.669 238.689 158.133 236.406 155.29 233.093C154.783 232.5 154.132 231.856 153.186 232.412C152.258 232.958 152.094 233.84 152.405 234.735C152.924 236.221 153.404 237.768 154.213 239.097C156.247 242.431 159.213 244.849 162.479 246.924C168.751 250.913 175.761 252.254 183.03 252.564C194.06 253.041 204.823 251.395 215.433 248.435C230.581 244.211 243.752 236.75 254.315 224.979C263.109 215.178 269.391 204.117 270.737 190.761C271.394 184.242 270.694 177.856 267.642 171.909C264.332 165.465 259.068 160.674 252.774 157.373C243.609 152.567 233.718 149.77 223.509 149.77H213.281C200.916 149.77 188.963 153.313 177.344 157.539C168.549 160.741 159.925 164.519 151.553 168.7C133.32 177.811 116.34 188.796 102.393 203.901C95.4446 211.426 89.5616 219.73 86.1775 229.507C85.1879 232.369 84.2481 235.438 83.5409 238.397L83.3345 242.692ZM149.607 323.861C148.817 334.443 144.02 343.021 136.182 349.97C131.773 353.876 126.715 356.658 120.825 357.635C118.69 357.989 116.504 358.074 114.432 357.189C111.478 355.927 110.815 353.304 110.758 350.511C110.671 346.059 112.23 342.034 114.368 338.204C117.159 333.211 121.25 329.404 125.619 325.849C132.501 320.246 139.967 315.505 147.613 311.029L148.19 310.792C149.372 315.158 149.934 319.47 149.607 323.861ZM209.31 277.872C208.753 281.251 208.055 284.633 207.068 287.908C203.655 299.244 199.272 310.229 194.533 321.068C193.657 323.073 192.383 324.903 191.274 326.803C191.104 327.098 190.85 327.352 190.603 327.596C189.231 328.951 187.931 328.88 187.238 327.107C186.431 325.047 185.935 322.843 185.508 320.662C185.221 319.198 185.289 317.66 185.199 316.16C185.292 305.495 188.545 295.803 194.065 286.78C196.341 283.059 198.819 279.514 202.604 277.16C203.767 276.436 205.072 275.854 206.389 275.484C208.406 274.917 209.645 275.85 209.31 277.872ZM250.043 329.768L264.683 312.674C265.293 319.022 254.502 331.694 250.043 329.768ZM296.801 318.265C295.766 318.858 294.639 319.285 293.578 319.834C292.608 320.337 292.287 319.829 292.259 318.993C292.24 318.426 292.323 317.833 292.479 317.282C294.456 310.31 298.094 304.358 303.507 299.517L303.887 299.322C306.462 306.525 303.486 314.435 296.801 318.265Z" fill="white"/>
</svg>
