<svg width="124" height="145" viewBox="0 0 124 145" fill="none" xmlns="http://www.w3.org/2000/svg">
<g filter="url(#filter0_d)">
<path d="M58.2637 1L2 35.093V102.72L58.2637 135.695L116.215 102.72V35.093L58.2637 1Z" fill="white"/>
<path d="M58.2637 1L2 35.093V102.72L58.2637 135.695L116.215 102.72V35.093L58.2637 1Z" stroke="#DFDDDD"/>
</g>
<path d="M58.7216 6.51392L6.72617 38.0151V100.501L58.7216 130.969L112.277 100.501V38.0151L58.7216 6.51392Z" stroke="#DFDDDD" stroke-opacity="0.5"/>
<g clip-path="url(#clip0)">
<path fill-rule="evenodd" clip-rule="evenodd" d="M58.7138 35.6711C46.2806 35.6711 36.1977 45.7514 36.1977 58.1873C36.1977 68.1352 42.649 76.5754 51.5957 79.5523C52.7208 79.7608 53.1342 79.0638 53.1342 78.469C53.1342 77.9323 53.113 76.1584 53.1035 74.2775C46.839 75.6392 45.5175 71.6207 45.5175 71.6207C44.4934 69.018 43.0174 68.3257 43.0174 68.3257C40.9746 66.9286 43.1709 66.9572 43.1709 66.9572C45.4323 67.1159 46.623 69.2778 46.623 69.2778C48.6309 72.7199 51.8905 71.7245 53.1749 71.1492C53.3776 69.6938 53.9608 68.6999 54.6049 68.1379C49.6037 67.5689 44.3463 65.6378 44.3463 57.0103C44.3463 54.552 45.2259 52.5436 46.6664 50.9664C46.4325 50.3991 45.662 48.1086 46.8845 45.0073C46.8845 45.0073 48.7749 44.4029 53.0765 47.3163C54.8732 46.8173 56.7996 46.5669 58.7128 46.5585C60.6265 46.5675 62.5539 46.8178 64.3533 47.3163C68.6507 44.4035 70.539 45.0078 70.539 45.0078C71.7647 48.1091 70.9941 50.3991 70.7602 50.967C72.2039 52.543 73.0772 54.552 73.0772 57.0108C73.0772 65.6584 67.8097 67.5626 62.7958 68.1193C63.6034 68.8179 64.3232 70.1886 64.3232 72.2897C64.3232 75.3021 64.2978 77.7265 64.2978 78.4679C64.2978 79.066 64.7031 79.7688 65.8442 79.5476C74.7861 76.5669 81.2289 68.1299 81.2289 58.1852C81.23 45.7519 71.1492 35.6711 58.7138 35.6711Z" fill="#181616"/>
<path d="M44.7263 67.9987C44.676 68.1109 44.4998 68.1443 44.3399 68.0675C44.1759 67.9934 44.0849 67.8415 44.1378 67.7288C44.1854 67.6145 44.3622 67.5822 44.5257 67.659C44.6898 67.7331 44.7829 67.8865 44.7268 67.9987H44.7263ZM45.6381 69.017C45.5307 69.1159 45.3206 69.0699 45.1777 68.9122C45.0306 68.755 45.0031 68.5449 45.1121 68.4443C45.2222 68.3448 45.4259 68.3914 45.5725 68.5486C45.7207 68.7074 45.7498 68.9154 45.6376 69.0164L45.6381 69.017ZM46.5257 70.3125C46.3881 70.4088 46.1621 70.3189 46.0229 70.1183C45.8842 69.9188 45.8842 69.679 46.0255 69.5822C46.1653 69.4859 46.3875 69.5727 46.5283 69.7711C46.667 69.9749 46.667 70.2157 46.5257 70.3131V70.3125ZM47.7418 71.5657C47.6185 71.7018 47.3555 71.6652 47.1634 71.4795C46.9665 71.2979 46.912 71.0402 47.0353 70.9042C47.1607 70.7682 47.4248 70.8063 47.6185 70.9905C47.8143 71.1715 47.8736 71.4297 47.7418 71.5652V71.5657ZM49.4206 72.2929C49.3655 72.4697 49.1125 72.5496 48.8575 72.475C48.6024 72.3977 48.4362 72.1913 48.487 72.0135C48.5399 71.8356 48.795 71.7526 49.0517 71.8325C49.3057 71.9087 49.4724 72.113 49.42 72.2929H49.4206ZM51.2623 72.4279C51.2692 72.6131 51.0527 72.7676 50.7849 72.7708C50.5161 72.7771 50.298 72.6268 50.2948 72.4437C50.2948 72.2564 50.5065 72.104 50.7754 72.0997C51.0432 72.0944 51.2623 72.2437 51.2623 72.4279ZM52.977 72.1363C53.0087 72.3172 52.8235 72.5035 52.5573 72.5528C52.2959 72.6014 52.0545 72.4892 52.0207 72.3093C51.9889 72.1241 52.1778 71.9388 52.4388 71.8902C52.705 71.8436 52.9431 71.9526 52.977 72.1368V72.1363Z" fill="#181616"/>
<path d="M37.9971 92.1876H32.3343C32.2642 92.1876 32.1969 92.2155 32.1472 92.2651C32.0976 92.3147 32.0697 92.382 32.0697 92.4522V95.2211C32.0697 95.2913 32.0976 95.3586 32.1472 95.4082C32.1969 95.4579 32.2642 95.4857 32.3343 95.4857H34.5428V98.9257C34.5428 98.9257 34.0469 99.0951 32.6746 99.0951C31.0573 99.0951 28.797 98.5045 28.797 93.5339C28.797 88.5629 31.151 87.9082 33.361 87.9082C35.2737 87.9082 36.0972 88.2448 36.6222 88.4073C36.7862 88.457 36.9397 88.293 36.9397 88.1469L37.5711 85.4716C37.5721 85.4316 37.5634 85.3919 37.5457 85.3559C37.528 85.32 37.5018 85.2889 37.4695 85.2652C37.2562 85.1128 35.9575 84.3867 32.6757 84.3867C28.8949 84.3867 25.0167 85.9945 25.0167 93.7276C25.0167 101.46 29.4569 102.612 33.1986 102.612C36.2967 102.612 38.176 101.288 38.176 101.288C38.2533 101.245 38.2617 101.137 38.2617 101.087V92.4517C38.2617 92.3815 38.2338 92.3142 38.1842 92.2646C38.1346 92.2149 38.0673 92.1871 37.9971 92.1871V92.1876ZM66.9201 85.0472H63.731C63.6962 85.0473 63.6617 85.0543 63.6296 85.0678C63.5976 85.0813 63.5684 85.1009 63.544 85.1256C63.5195 85.1504 63.5001 85.1797 63.487 85.2119C63.4738 85.2441 63.4672 85.2786 63.4674 85.3134L63.4685 91.4758H58.4979V85.3134C58.4981 85.2787 58.4915 85.2442 58.4784 85.212C58.4653 85.1798 58.446 85.1505 58.4215 85.1258C58.3971 85.1011 58.3681 85.0814 58.336 85.0679C58.304 85.0545 58.2696 85.0474 58.2349 85.0472H55.0463C55.0115 85.0473 54.9771 85.0543 54.945 85.0678C54.9129 85.0813 54.8838 85.1009 54.8593 85.1256C54.8348 85.1504 54.8154 85.1797 54.8023 85.2119C54.7892 85.2441 54.7825 85.2786 54.7827 85.3134V102C54.7827 102.147 54.9013 102.266 55.0463 102.266H58.2349C58.2697 102.266 58.3041 102.259 58.3362 102.245C58.3682 102.232 58.3973 102.212 58.4217 102.187C58.4462 102.163 58.4655 102.133 58.4785 102.101C58.4916 102.069 58.4982 102.034 58.4979 102V94.8623H63.4685L63.46 102C63.46 102.147 63.5785 102.266 63.7246 102.266H66.9201C66.9549 102.266 66.9893 102.259 67.0214 102.245C67.0534 102.232 67.0825 102.212 67.1069 102.187C67.1314 102.163 67.1507 102.133 67.1637 102.101C67.1768 102.069 67.1834 102.034 67.1831 102V85.3129C67.1831 85.1657 67.0667 85.0472 66.9201 85.0472ZM41.9584 85.4267C40.8237 85.4267 39.9029 86.3544 39.9029 87.5028C39.9029 88.6497 40.8237 89.5801 41.9584 89.5801C43.0941 89.5801 44.0145 88.6497 44.0145 87.5028C44.0145 86.3544 43.0936 85.4267 41.9584 85.4267ZM43.5228 90.5115H40.3442C40.1982 90.5115 40.068 90.6618 40.068 90.8079V101.843C40.068 102.168 40.2702 102.264 40.5316 102.264H43.3947C43.7096 102.264 43.7864 102.11 43.7864 101.838V98.4796V90.7777C43.7865 90.743 43.7798 90.7085 43.7666 90.6764C43.7535 90.6442 43.7341 90.615 43.7096 90.5903C43.6851 90.5656 43.656 90.546 43.624 90.5326C43.5919 90.5192 43.5576 90.5122 43.5228 90.512V90.5115ZM79.302 90.5364H76.1372C76.1024 90.5367 76.0681 90.5438 76.0361 90.5573C76.0041 90.5709 75.9751 90.5906 75.9507 90.6154C75.9263 90.6401 75.9071 90.6695 75.894 90.7017C75.881 90.7339 75.8744 90.7684 75.8747 90.8031V98.985C75.8747 98.985 75.0703 99.5725 73.9298 99.5725C72.7893 99.5725 72.4865 99.0554 72.4865 97.9382V90.8031C72.4868 90.7683 72.4802 90.7338 72.4672 90.7016C72.4541 90.6693 72.4348 90.64 72.4104 90.6152C72.3859 90.5904 72.3568 90.5707 72.3248 90.5572C72.2927 90.5437 72.2583 90.5366 72.2235 90.5364H69.0121C68.9419 90.5369 68.8747 90.5653 68.8253 90.6153C68.7759 90.6653 68.7483 90.7328 68.7486 90.8031V98.478C68.7486 101.796 70.5983 102.608 73.1423 102.608C75.2296 102.608 76.9125 101.454 76.9125 101.454C76.9125 101.454 76.9919 102.063 77.0289 102.134C77.066 102.206 77.1597 102.279 77.2618 102.279L79.3046 102.27C79.3395 102.27 79.374 102.263 79.4062 102.249C79.4384 102.236 79.4676 102.216 79.4922 102.191C79.5168 102.167 79.5362 102.137 79.5494 102.105C79.5626 102.073 79.5694 102.038 79.5692 102.003L79.5677 90.8015C79.5674 90.7313 79.5394 90.6641 79.4899 90.6143C79.4404 90.5646 79.3732 90.5364 79.303 90.5359L79.302 90.5364ZM87.9507 90.1617C86.1534 90.1617 84.9309 90.9635 84.9309 90.9635V85.3129C84.9311 85.2781 84.9245 85.2437 84.9114 85.2115C84.8982 85.1793 84.8789 85.15 84.8545 85.1253C84.8301 85.1006 84.801 85.0809 84.769 85.0674C84.737 85.0539 84.7026 85.0469 84.6679 85.0467H81.4708C81.4359 85.0467 81.4013 85.0536 81.3691 85.067C81.3369 85.0804 81.3077 85.1 81.2831 85.1247C81.2585 85.1495 81.239 85.1788 81.2258 85.2111C81.2126 85.2434 81.2059 85.278 81.2062 85.3129V102C81.2059 102.034 81.2126 102.069 81.2258 102.101C81.239 102.134 81.2585 102.163 81.2831 102.188C81.3077 102.212 81.3369 102.232 81.3691 102.245C81.4013 102.259 81.4359 102.266 81.4708 102.266H83.6893C83.7899 102.266 83.865 102.214 83.9206 102.124C83.9751 102.034 84.055 101.354 84.055 101.354C84.055 101.354 85.3622 102.593 87.8379 102.593C90.7434 102.593 92.4105 101.119 92.4105 95.9763C92.4105 90.8333 89.7485 90.1612 87.9501 90.1612L87.9507 90.1617ZM86.7017 99.5629C85.6046 99.5296 84.86 99.0316 84.86 99.0316V93.7472C84.86 93.7472 85.5945 93.2974 86.4953 93.2159C87.6347 93.1137 88.7329 93.4583 88.7329 96.1764C88.7329 99.0432 88.238 99.609 86.7022 99.5624L86.7017 99.5629ZM52.9955 99.5005C52.8563 99.5005 52.4996 99.5571 52.1329 99.5571C50.958 99.5571 50.5595 99.011 50.5595 98.3039V93.6117H52.9516C52.9865 93.6117 53.0211 93.6048 53.0533 93.5914C53.0856 93.578 53.1148 93.5583 53.1394 93.5335C53.164 93.5087 53.1835 93.4793 53.1967 93.4469C53.2098 93.4146 53.2165 93.3799 53.2162 93.345V90.7751C53.2163 90.7402 53.2096 90.7057 53.1964 90.6735C53.1831 90.6413 53.1637 90.612 53.1391 90.5873C53.1145 90.5626 53.0853 90.543 53.0531 90.5296C53.0209 90.5163 52.9864 90.5094 52.9516 90.5094H50.5595L50.5558 87.3499C50.5558 87.2297 50.4944 87.1699 50.3557 87.1699H47.0956C46.9697 87.1699 46.9014 87.226 46.9014 87.3472V90.6126C46.9014 90.6126 45.2677 91.0069 45.1576 91.0386C45.1026 91.0547 45.0544 91.0881 45.02 91.1339C44.9856 91.1797 44.9671 91.2354 44.9671 91.2927V93.3445C44.9669 93.3792 44.9735 93.4137 44.9866 93.4459C44.9997 93.4781 45.019 93.5073 45.0435 93.5321C45.0679 93.5568 45.0969 93.5764 45.129 93.5899C45.161 93.6034 45.1954 93.6105 45.2301 93.6107H46.9014V98.5473C46.9014 102.215 49.4735 102.575 51.2094 102.575C52.0016 102.575 52.9505 102.321 53.1072 102.263C53.2024 102.227 53.2569 102.129 53.2569 102.023L53.2591 99.7656C53.258 99.6957 53.2298 99.6289 53.1804 99.5793C53.1311 99.5298 53.0644 99.5013 52.9945 99.5L52.9955 99.5005Z" fill="#100E0F"/>
</g>
<defs>
<filter id="filter0_d" x="0.5" y="0.417725" width="123.215" height="143.855" filterUnits="userSpaceOnUse" color-interpolation-filters="sRGB">
<feFlood flood-opacity="0" result="BackgroundImageFix"/>
<feColorMatrix in="SourceAlpha" type="matrix" values="0 0 0 0 0 0 0 0 0 0 0 0 0 0 0 0 0 0 127 0"/>
<feOffset dx="3" dy="4"/>
<feGaussianBlur stdDeviation="2"/>
<feColorMatrix type="matrix" values="0 0 0 0 0.775 0 0 0 0 0.775 0 0 0 0 0.775 0 0 0 0.25 0"/>
<feBlend mode="normal" in2="BackgroundImageFix" result="effect1_dropShadow"/>
<feBlend mode="normal" in="SourceGraphic" in2="effect1_dropShadow" result="shape"/>
</filter>
<clipPath id="clip0">
<rect width="67.7415" height="67.7415" fill="white" transform="translate(24.8431 34.8708)"/>
</clipPath>
</defs>
</svg>
