<svg width="124" height="145" viewBox="0 0 124 145" fill="none" xmlns="http://www.w3.org/2000/svg">
<g filter="url(#filter0_d)">
<path d="M58.2637 1L2 35.093V102.72L58.2637 135.695L116.215 102.72V35.093L58.2637 1Z" fill="white"/>
<path d="M58.2637 1L2 35.093V102.72L58.2637 135.695L116.215 102.72V35.093L58.2637 1Z" stroke="#DFDDDD"/>
</g>
<path d="M58.7216 6.78784L6.72615 38.289V100.775L58.7216 131.243L112.277 100.775V38.289L58.7216 6.78784Z" stroke="#DFDDDD"/>
<path d="M16.5711 65.7019H19.8902V77.7822H26.0311V80.846H16.5711V65.7019Z" fill="#1D1D1B"/>
<path d="M27.4958 70.5863H30.6805V80.8392H27.4958V70.5863ZM29.0881 65.4868C29.4536 65.4868 29.8108 65.5952 30.1146 65.7982C30.4185 66.0012 30.6553 66.2898 30.7951 66.6274C30.935 66.965 30.9716 67.3365 30.9003 67.6949C30.829 68.0533 30.653 68.3826 30.3946 68.641C30.1362 68.8994 29.807 69.0753 29.4486 69.1466C29.0902 69.2179 28.7187 69.1813 28.3811 69.0415C28.0434 68.9016 27.7549 68.6648 27.5518 68.361C27.3488 68.0571 27.2405 67.6999 27.2405 67.3345C27.2405 66.8444 27.4351 66.3745 27.7816 66.028C28.1281 65.6815 28.5981 65.4868 29.0881 65.4868Z" fill="#1D1D1B"/>
<path d="M44.0105 65.7019H47.1952V74.7521L50.8098 70.573H54.7134L50.5344 75.3232L54.6261 80.846H50.6217L47.2355 75.7733H47.1952V80.846H44.0105V65.7019Z" fill="#1D1D1B"/>
<path d="M32.4475 70.5862H35.4844V71.9905H35.5247C35.831 71.4674 36.2732 71.037 36.8043 70.7448C37.3354 70.4527 37.9356 70.3096 38.5414 70.3309C41.7731 70.3309 42.3644 72.4541 42.3644 75.2155V80.8458H39.2066V75.8537C39.2066 74.6645 39.2066 73.1662 37.547 73.1662C35.8875 73.1662 35.6322 74.463 35.6322 75.8V80.8726H32.4475V70.5862Z" fill="#1D1D1B"/>
<path d="M61.4255 74.5168C61.4319 74.2583 61.3858 74.0011 61.2898 73.761C61.1938 73.5209 61.05 73.3028 60.8672 73.1199C60.6843 72.937 60.4662 72.7933 60.2261 72.6973C59.986 72.6013 59.7288 72.5552 59.4703 72.5616C58.9135 72.5264 58.3652 72.7118 57.944 73.0777C57.5228 73.4436 57.2625 73.9605 57.2195 74.5168H61.4255ZM64.113 79.0654C63.5814 79.7024 62.9153 80.2135 62.1624 80.5621C61.4096 80.9106 60.5888 81.0878 59.7592 81.081C56.5745 81.081 54.0214 78.9579 54.0214 75.659C54.0214 72.3601 56.5745 70.2437 59.7592 70.2437C62.7356 70.2437 64.6034 72.3668 64.6034 75.659V76.6601H57.2128C57.3006 77.2296 57.5922 77.7479 58.0333 78.1186C58.4745 78.4893 59.0353 78.6873 59.6114 78.6757C60.0652 78.675 60.5115 78.5595 60.9086 78.3398C61.3057 78.1201 61.6407 77.8034 61.8823 77.4193L64.113 79.0654Z" fill="#1D1D1B"/>
<path d="M71.2483 73.0589C70.7282 73.0429 70.2152 73.1824 69.7749 73.4597C69.3347 73.7369 68.9872 74.1393 68.7769 74.6152C68.5667 75.0912 68.5033 75.619 68.5948 76.1312C68.6864 76.6434 68.9287 77.1166 69.2908 77.4902C69.6529 77.8638 70.1183 78.1209 70.6274 78.2284C71.1364 78.336 71.666 78.2892 72.1483 78.0939C72.6306 77.8987 73.0436 77.564 73.3346 77.1326C73.6255 76.7012 73.781 76.1928 73.7812 75.6725C73.8098 75.3273 73.7638 74.9799 73.6464 74.654C73.529 74.328 73.343 74.0311 73.1009 73.7833C72.8588 73.5355 72.5663 73.3426 72.2432 73.2176C71.9201 73.0926 71.5739 73.0385 71.2281 73.0589H71.2483ZM76.7375 80.8393H73.7812V79.4955C73.4119 79.9881 72.9347 80.3895 72.3861 80.669C71.8376 80.9486 71.2323 81.0987 70.6167 81.108C67.553 81.108 65.5373 78.8975 65.5373 75.7733C65.5373 72.9044 67.3245 70.2707 70.2405 70.2707C70.8536 70.2168 71.4706 70.3107 72.0399 70.5445C72.6093 70.7783 73.1142 71.1452 73.5125 71.6144H73.5528V65.7019H76.7375V80.8393Z" fill="#1D1D1B"/>
<path d="M99.8366 62.5238H81.5145C81.0987 62.5202 80.6984 62.6815 80.4012 62.9724C80.104 63.2633 79.9342 63.66 79.9289 64.0758V82.4718C79.9342 82.8876 80.104 83.2844 80.4012 83.5752C80.6984 83.8661 81.0987 84.0274 81.5145 84.0238H99.8366C100.043 84.0265 100.248 83.9885 100.44 83.9119C100.632 83.8353 100.806 83.7217 100.954 83.5776C101.102 83.4335 101.22 83.2617 101.302 83.0719C101.383 82.8822 101.426 82.6783 101.429 82.4718V64.0758C101.426 63.8694 101.383 63.6654 101.302 63.4757C101.22 63.286 101.102 63.1141 100.954 62.97C100.806 62.8259 100.632 62.7123 100.44 62.6357C100.248 62.5592 100.043 62.5211 99.8366 62.5238Z" fill="#0076B2"/>
<path d="M83.1136 70.5863H86.305V80.8459H83.1136V70.5863ZM84.7059 65.4868C85.0714 65.4868 85.4286 65.5952 85.7324 65.7982C86.0363 66.0012 86.2731 66.2898 86.4129 66.6274C86.5528 66.965 86.5894 67.3365 86.5181 67.6949C86.4468 68.0533 86.2708 68.3826 86.0124 68.641C85.754 68.8994 85.4248 69.0753 85.0664 69.1466C84.708 69.2179 84.3365 69.1813 83.9989 69.0415C83.6612 68.9016 83.3727 68.6648 83.1697 68.361C82.9666 68.0571 82.8583 67.6999 82.8583 67.3345C82.8583 66.8444 83.0529 66.3745 83.3994 66.028C83.7459 65.6815 84.2159 65.4868 84.7059 65.4868Z" fill="white"/>
<path d="M88.3005 70.5862H91.3575V71.9905H91.3978C91.7042 71.4674 92.1463 71.037 92.6774 70.7448C93.2085 70.4527 93.8087 70.3096 94.4145 70.3309C97.6462 70.3309 98.2375 72.4541 98.2375 75.2155V80.8458H95.0528V75.8537C95.0528 74.6645 95.0528 73.1662 93.3933 73.1662C91.7337 73.1662 91.4784 74.463 91.4784 75.8V80.8726H88.2937L88.3005 70.5862Z" fill="white"/>
<defs>
<filter id="filter0_d" x="0.5" y="0.417725" width="123.215" height="143.855" filterUnits="userSpaceOnUse" color-interpolation-filters="sRGB">
<feFlood flood-opacity="0" result="BackgroundImageFix"/>
<feColorMatrix in="SourceAlpha" type="matrix" values="0 0 0 0 0 0 0 0 0 0 0 0 0 0 0 0 0 0 127 0"/>
<feOffset dx="3" dy="4"/>
<feGaussianBlur stdDeviation="2"/>
<feColorMatrix type="matrix" values="0 0 0 0 0.775 0 0 0 0 0.775 0 0 0 0 0.775 0 0 0 0.25 0"/>
<feBlend mode="normal" in2="BackgroundImageFix" result="effect1_dropShadow"/>
<feBlend mode="normal" in="SourceGraphic" in2="effect1_dropShadow" result="shape"/>
</filter>
</defs>
</svg>
